<mxfile host="app.diagrams.net" agent="Mozilla/5.0 (Windows NT 10.0; Win64; x64) AppleWebKit/537.36 (KHTML, like Gecko) Chrome/131.0.0.0 Safari/537.36 Edg/131.0.0.0" version="25.0.3">
  <diagram name="Страница — 1" id="orZTamgfQHhNFHQ7JQ0r">
    <mxGraphModel dx="2866" dy="1608" grid="1" gridSize="10" guides="1" tooltips="1" connect="1" arrows="1" fold="1" page="1" pageScale="1" pageWidth="827" pageHeight="1169" math="0" shadow="0">
      <root>
        <mxCell id="0" />
        <mxCell id="1" parent="0" />
        <mxCell id="eBJLb_c3kR89JoHOm1fs-2" value="Гость" style="shape=umlActor;verticalLabelPosition=bottom;verticalAlign=top;html=1;outlineConnect=0;" parent="1" vertex="1">
          <mxGeometry x="150" y="440" width="50" height="90" as="geometry" />
        </mxCell>
        <mxCell id="eBJLb_c3kR89JoHOm1fs-3" value="Регистрация" style="ellipse;whiteSpace=wrap;html=1;" parent="1" vertex="1">
          <mxGeometry x="310" y="320" width="120" height="70" as="geometry" />
        </mxCell>
        <mxCell id="eBJLb_c3kR89JoHOm1fs-11" value="Просмотр товаров на сайте" style="ellipse;whiteSpace=wrap;html=1;" parent="1" vertex="1">
          <mxGeometry x="310" y="430" width="120" height="70" as="geometry" />
        </mxCell>
        <mxCell id="eBJLb_c3kR89JoHOm1fs-13" value="Оплата" style="ellipse;whiteSpace=wrap;html=1;" parent="1" vertex="1">
          <mxGeometry x="1040" y="390" width="120" height="70" as="geometry" />
        </mxCell>
        <mxCell id="eBJLb_c3kR89JoHOm1fs-17" value="Поиск товаров на сайте" style="ellipse;whiteSpace=wrap;html=1;" parent="1" vertex="1">
          <mxGeometry x="510" y="370" width="120" height="70" as="geometry" />
        </mxCell>
        <mxCell id="eBJLb_c3kR89JoHOm1fs-20" value="Ввод названия" style="ellipse;whiteSpace=wrap;html=1;" parent="1" vertex="1">
          <mxGeometry x="707" y="370" width="120" height="70" as="geometry" />
        </mxCell>
        <mxCell id="eBJLb_c3kR89JoHOm1fs-21" value="" style="endArrow=classic;html=1;rounded=0;dashed=1;entryX=0;entryY=0.5;entryDx=0;entryDy=0;exitX=1;exitY=0.5;exitDx=0;exitDy=0;" parent="1" source="eBJLb_c3kR89JoHOm1fs-11" target="eBJLb_c3kR89JoHOm1fs-17" edge="1">
          <mxGeometry width="50" height="50" relative="1" as="geometry">
            <mxPoint x="610" y="660" as="sourcePoint" />
            <mxPoint x="730" y="660" as="targetPoint" />
          </mxGeometry>
        </mxCell>
        <mxCell id="eBJLb_c3kR89JoHOm1fs-22" value="«‎include»" style="edgeLabel;html=1;align=center;verticalAlign=middle;resizable=0;points=[];" parent="eBJLb_c3kR89JoHOm1fs-21" vertex="1" connectable="0">
          <mxGeometry x="-0.6418" y="3" relative="1" as="geometry">
            <mxPoint x="29" y="-12" as="offset" />
          </mxGeometry>
        </mxCell>
        <mxCell id="eBJLb_c3kR89JoHOm1fs-23" value="" style="endArrow=classic;html=1;rounded=0;dashed=1;entryX=0;entryY=0.5;entryDx=0;entryDy=0;exitX=1;exitY=0.5;exitDx=0;exitDy=0;" parent="1" source="eBJLb_c3kR89JoHOm1fs-17" target="eBJLb_c3kR89JoHOm1fs-20" edge="1">
          <mxGeometry width="50" height="50" relative="1" as="geometry">
            <mxPoint x="470" y="240" as="sourcePoint" />
            <mxPoint x="590" y="240" as="targetPoint" />
          </mxGeometry>
        </mxCell>
        <mxCell id="eBJLb_c3kR89JoHOm1fs-24" value="«‎include»" style="edgeLabel;html=1;align=center;verticalAlign=middle;resizable=0;points=[];" parent="eBJLb_c3kR89JoHOm1fs-23" vertex="1" connectable="0">
          <mxGeometry x="-0.6418" y="3" relative="1" as="geometry">
            <mxPoint x="29" y="-12" as="offset" />
          </mxGeometry>
        </mxCell>
        <mxCell id="eBJLb_c3kR89JoHOm1fs-25" value="" style="endArrow=none;html=1;rounded=0;entryX=0;entryY=0.5;entryDx=0;entryDy=0;exitX=1;exitY=0.3333333333333333;exitDx=0;exitDy=0;exitPerimeter=0;" parent="1" source="eBJLb_c3kR89JoHOm1fs-2" target="eBJLb_c3kR89JoHOm1fs-3" edge="1">
          <mxGeometry width="50" height="50" relative="1" as="geometry">
            <mxPoint x="200" y="730" as="sourcePoint" />
            <mxPoint x="250" y="680" as="targetPoint" />
          </mxGeometry>
        </mxCell>
        <mxCell id="eBJLb_c3kR89JoHOm1fs-28" value="" style="endArrow=none;html=1;rounded=0;entryX=0;entryY=0.5;entryDx=0;entryDy=0;exitX=1;exitY=0.3333333333333333;exitDx=0;exitDy=0;exitPerimeter=0;" parent="1" source="eBJLb_c3kR89JoHOm1fs-2" target="eBJLb_c3kR89JoHOm1fs-11" edge="1">
          <mxGeometry width="50" height="50" relative="1" as="geometry">
            <mxPoint x="200" y="480" as="sourcePoint" />
            <mxPoint x="320" y="345" as="targetPoint" />
          </mxGeometry>
        </mxCell>
        <mxCell id="eBJLb_c3kR89JoHOm1fs-29" value="Покупатель" style="shape=umlActor;verticalLabelPosition=bottom;verticalAlign=top;html=1;outlineConnect=0;" parent="1" vertex="1">
          <mxGeometry x="120" y="1050" width="40" height="90" as="geometry" />
        </mxCell>
        <mxCell id="eBJLb_c3kR89JoHOm1fs-30" value="Личный кабинет" style="ellipse;whiteSpace=wrap;html=1;" parent="1" vertex="1">
          <mxGeometry x="430" y="1010" width="120" height="70" as="geometry" />
        </mxCell>
        <mxCell id="eBJLb_c3kR89JoHOm1fs-32" value="" style="endArrow=none;html=1;rounded=0;entryX=0;entryY=1;entryDx=0;entryDy=0;exitX=1;exitY=0.3333333333333333;exitDx=0;exitDy=0;exitPerimeter=0;" parent="1" source="eBJLb_c3kR89JoHOm1fs-29" target="eBJLb_c3kR89JoHOm1fs-42" edge="1">
          <mxGeometry width="50" height="50" relative="1" as="geometry">
            <mxPoint x="200" y="710" as="sourcePoint" />
            <mxPoint x="470.0000000000025" y="785" as="targetPoint" />
          </mxGeometry>
        </mxCell>
        <mxCell id="eBJLb_c3kR89JoHOm1fs-33" value="" style="endArrow=none;html=1;rounded=0;entryX=0;entryY=0.5;entryDx=0;entryDy=0;exitX=1;exitY=0.3333333333333333;exitDx=0;exitDy=0;exitPerimeter=0;" parent="1" source="eBJLb_c3kR89JoHOm1fs-29" target="eBJLb_c3kR89JoHOm1fs-30" edge="1">
          <mxGeometry width="50" height="50" relative="1" as="geometry">
            <mxPoint x="210" y="720" as="sourcePoint" />
            <mxPoint x="330" y="715" as="targetPoint" />
          </mxGeometry>
        </mxCell>
        <mxCell id="eBJLb_c3kR89JoHOm1fs-38" value="Доступно после регистрации" style="shape=note;whiteSpace=wrap;html=1;backgroundOutline=1;darkOpacity=0.05;" parent="1" vertex="1">
          <mxGeometry x="240" y="815" width="70" height="80" as="geometry" />
        </mxCell>
        <mxCell id="eBJLb_c3kR89JoHOm1fs-42" value="Оплата выбранного товара" style="ellipse;whiteSpace=wrap;html=1;" parent="1" vertex="1">
          <mxGeometry x="390" y="770" width="120" height="70" as="geometry" />
        </mxCell>
        <mxCell id="eBJLb_c3kR89JoHOm1fs-45" value="Отправка формы" style="ellipse;whiteSpace=wrap;html=1;" parent="1" vertex="1">
          <mxGeometry x="587" y="650" width="120" height="70" as="geometry" />
        </mxCell>
        <mxCell id="eBJLb_c3kR89JoHOm1fs-48" value="Заполнение формы" style="ellipse;whiteSpace=wrap;html=1;" parent="1" vertex="1">
          <mxGeometry x="827" y="515" width="120" height="70" as="geometry" />
        </mxCell>
        <mxCell id="eBJLb_c3kR89JoHOm1fs-55" value="История заказов" style="ellipse;whiteSpace=wrap;html=1;" parent="1" vertex="1">
          <mxGeometry x="660" y="960" width="120" height="70" as="geometry" />
        </mxCell>
        <mxCell id="eBJLb_c3kR89JoHOm1fs-56" value="" style="endArrow=classic;html=1;rounded=0;dashed=1;entryX=0;entryY=0.5;entryDx=0;entryDy=0;exitX=1;exitY=0.5;exitDx=0;exitDy=0;" parent="1" source="eBJLb_c3kR89JoHOm1fs-30" target="eBJLb_c3kR89JoHOm1fs-55" edge="1">
          <mxGeometry width="50" height="50" relative="1" as="geometry">
            <mxPoint x="440" y="950" as="sourcePoint" />
            <mxPoint x="560" y="950" as="targetPoint" />
          </mxGeometry>
        </mxCell>
        <mxCell id="eBJLb_c3kR89JoHOm1fs-57" value="«‎include»" style="edgeLabel;html=1;align=center;verticalAlign=middle;resizable=0;points=[];" parent="eBJLb_c3kR89JoHOm1fs-56" vertex="1" connectable="0">
          <mxGeometry x="-0.6418" y="3" relative="1" as="geometry">
            <mxPoint x="29" y="-12" as="offset" />
          </mxGeometry>
        </mxCell>
        <mxCell id="eBJLb_c3kR89JoHOm1fs-58" value="Продавец" style="shape=umlActor;verticalLabelPosition=bottom;verticalAlign=top;html=1;outlineConnect=0;" parent="1" vertex="1">
          <mxGeometry x="1721" y="545" width="50" height="90" as="geometry" />
        </mxCell>
        <mxCell id="eBJLb_c3kR89JoHOm1fs-61" value="История заказов" style="ellipse;whiteSpace=wrap;html=1;" parent="1" vertex="1">
          <mxGeometry x="1260" y="400" width="120" height="70" as="geometry" />
        </mxCell>
        <mxCell id="eBJLb_c3kR89JoHOm1fs-65" value="Личный кабинет" style="ellipse;whiteSpace=wrap;html=1;" parent="1" vertex="1">
          <mxGeometry x="1491" y="475" width="120" height="70" as="geometry" />
        </mxCell>
        <mxCell id="eBJLb_c3kR89JoHOm1fs-68" value="" style="endArrow=classic;html=1;rounded=0;dashed=1;entryX=0;entryY=0;entryDx=0;entryDy=0;exitX=1;exitY=0.5;exitDx=0;exitDy=0;" parent="1" source="eBJLb_c3kR89JoHOm1fs-61" target="eBJLb_c3kR89JoHOm1fs-65" edge="1">
          <mxGeometry width="50" height="50" relative="1" as="geometry">
            <mxPoint x="1332" y="495" as="sourcePoint" />
            <mxPoint x="1452" y="495" as="targetPoint" />
          </mxGeometry>
        </mxCell>
        <mxCell id="eBJLb_c3kR89JoHOm1fs-69" value="«‎include»" style="edgeLabel;html=1;align=center;verticalAlign=middle;resizable=0;points=[];" parent="eBJLb_c3kR89JoHOm1fs-68" vertex="1" connectable="0">
          <mxGeometry x="-0.6418" y="3" relative="1" as="geometry">
            <mxPoint x="56" y="9" as="offset" />
          </mxGeometry>
        </mxCell>
        <mxCell id="eBJLb_c3kR89JoHOm1fs-73" value="Управление объявлениями" style="ellipse;whiteSpace=wrap;html=1;" parent="1" vertex="1">
          <mxGeometry x="1241" y="605" width="120" height="70" as="geometry" />
        </mxCell>
        <mxCell id="eBJLb_c3kR89JoHOm1fs-76" value="" style="endArrow=none;html=1;rounded=0;entryX=0;entryY=0.3333333333333333;entryDx=0;entryDy=0;exitX=1;exitY=1;exitDx=0;exitDy=0;entryPerimeter=0;" parent="1" edge="1" source="eBJLb_c3kR89JoHOm1fs-65">
          <mxGeometry width="50" height="50" relative="1" as="geometry">
            <mxPoint x="1611" y="510" as="sourcePoint" />
            <mxPoint x="1721" y="575" as="targetPoint" />
          </mxGeometry>
        </mxCell>
        <mxCell id="eBJLb_c3kR89JoHOm1fs-79" value="" style="endArrow=none;html=1;rounded=0;entryX=0;entryY=0.3333333333333333;entryDx=0;entryDy=0;exitX=1;exitY=0.5;exitDx=0;exitDy=0;entryPerimeter=0;" parent="1" source="eBJLb_c3kR89JoHOm1fs-73" target="eBJLb_c3kR89JoHOm1fs-58" edge="1">
          <mxGeometry width="50" height="50" relative="1" as="geometry">
            <mxPoint x="1451" y="675" as="sourcePoint" />
            <mxPoint x="1561" y="740" as="targetPoint" />
          </mxGeometry>
        </mxCell>
        <mxCell id="eBJLb_c3kR89JoHOm1fs-80" value="Доступно после регистрации" style="shape=note;whiteSpace=wrap;html=1;backgroundOutline=1;darkOpacity=0.05;" parent="1" vertex="1">
          <mxGeometry x="1650" y="420" width="69" height="80" as="geometry" />
        </mxCell>
        <mxCell id="eBJLb_c3kR89JoHOm1fs-82" value="Доступно после регистрации" style="shape=note;whiteSpace=wrap;html=1;backgroundOutline=1;darkOpacity=0.05;" parent="1" vertex="1">
          <mxGeometry x="1392" y="505" width="68" height="80" as="geometry" />
        </mxCell>
        <mxCell id="eBJLb_c3kR89JoHOm1fs-84" value="" style="endArrow=none;html=1;rounded=0;exitX=0.5;exitY=1;exitDx=0;exitDy=0;exitPerimeter=0;" parent="1" source="eBJLb_c3kR89JoHOm1fs-82" edge="1">
          <mxGeometry width="50" height="50" relative="1" as="geometry">
            <mxPoint x="1461" y="665" as="sourcePoint" />
            <mxPoint x="1426" y="630" as="targetPoint" />
            <Array as="points" />
          </mxGeometry>
        </mxCell>
        <mxCell id="eBJLb_c3kR89JoHOm1fs-100" value="Способ оплаты" style="ellipse;whiteSpace=wrap;html=1;" parent="1" vertex="1">
          <mxGeometry x="1121" y="290" width="120" height="70" as="geometry" />
        </mxCell>
        <mxCell id="eBJLb_c3kR89JoHOm1fs-101" value="Адрес заказчика" style="ellipse;whiteSpace=wrap;html=1;" parent="1" vertex="1">
          <mxGeometry x="860" y="400" width="120" height="70" as="geometry" />
        </mxCell>
        <mxCell id="eBJLb_c3kR89JoHOm1fs-108" value="" style="verticalLabelPosition=bottom;verticalAlign=top;html=1;strokeWidth=2;shape=mxgraph.arrows2.arrow;dy=1;dx=12.56;notch=0;rotation=105;" parent="1" vertex="1">
          <mxGeometry x="880" y="485" width="49.65" height="20" as="geometry" />
        </mxCell>
        <mxCell id="eBJLb_c3kR89JoHOm1fs-116" value="" style="endArrow=none;html=1;rounded=0;entryX=1;entryY=0;entryDx=0;entryDy=0;exitX=0.5;exitY=0.5;exitDx=0;exitDy=0;exitPerimeter=0;" parent="1" source="eBJLb_c3kR89JoHOm1fs-58" target="eBJLb_c3kR89JoHOm1fs-117" edge="1">
          <mxGeometry width="50" height="50" relative="1" as="geometry">
            <mxPoint x="980" y="760" as="sourcePoint" />
            <mxPoint x="1180" y="950" as="targetPoint" />
          </mxGeometry>
        </mxCell>
        <mxCell id="eBJLb_c3kR89JoHOm1fs-117" value="Настройки" style="ellipse;whiteSpace=wrap;html=1;" parent="1" vertex="1">
          <mxGeometry x="1241" y="720" width="120" height="70" as="geometry" />
        </mxCell>
        <mxCell id="eBJLb_c3kR89JoHOm1fs-118" value="" style="endArrow=none;html=1;rounded=0;exitX=0.5;exitY=1;exitDx=0;exitDy=0;exitPerimeter=0;" parent="1" source="eBJLb_c3kR89JoHOm1fs-80" edge="1">
          <mxGeometry width="50" height="50" relative="1" as="geometry">
            <mxPoint x="1685.38" y="500" as="sourcePoint" />
            <mxPoint x="1685" y="560" as="targetPoint" />
            <Array as="points" />
          </mxGeometry>
        </mxCell>
        <mxCell id="z7TpYC2vjfF_VWAq-0lx-2" value="" style="verticalLabelPosition=bottom;verticalAlign=top;html=1;strokeWidth=2;shape=mxgraph.arrows2.arrow;dy=1;dx=12.56;notch=2.99;rotation=-225;" parent="1" vertex="1">
          <mxGeometry x="1101.46" y="363.54" width="60" height="20" as="geometry" />
        </mxCell>
        <mxCell id="z7TpYC2vjfF_VWAq-0lx-3" value="" style="endArrow=classic;html=1;rounded=0;dashed=1;entryX=0;entryY=1;entryDx=0;entryDy=0;exitX=1;exitY=0;exitDx=0;exitDy=0;" parent="1" source="eBJLb_c3kR89JoHOm1fs-42" target="eBJLb_c3kR89JoHOm1fs-45" edge="1">
          <mxGeometry width="50" height="50" relative="1" as="geometry">
            <mxPoint x="690" y="750" as="sourcePoint" />
            <mxPoint x="810" y="720" as="targetPoint" />
          </mxGeometry>
        </mxCell>
        <mxCell id="z7TpYC2vjfF_VWAq-0lx-4" value="«‎include»" style="edgeLabel;html=1;align=center;verticalAlign=middle;resizable=0;points=[];" parent="z7TpYC2vjfF_VWAq-0lx-3" vertex="1" connectable="0">
          <mxGeometry x="-0.6418" y="3" relative="1" as="geometry">
            <mxPoint x="29" y="-12" as="offset" />
          </mxGeometry>
        </mxCell>
        <mxCell id="z7TpYC2vjfF_VWAq-0lx-5" value="" style="endArrow=classic;html=1;rounded=0;dashed=1;entryX=1;entryY=0;entryDx=0;entryDy=0;exitX=0;exitY=1;exitDx=0;exitDy=0;" parent="1" source="eBJLb_c3kR89JoHOm1fs-13" target="eBJLb_c3kR89JoHOm1fs-48" edge="1">
          <mxGeometry width="50" height="50" relative="1" as="geometry">
            <mxPoint x="863.5744496856671" y="340.45003814341317" as="sourcePoint" />
            <mxPoint x="973.810000000005" y="240" as="targetPoint" />
          </mxGeometry>
        </mxCell>
        <mxCell id="z7TpYC2vjfF_VWAq-0lx-6" value="«‎include»" style="edgeLabel;html=1;align=center;verticalAlign=middle;resizable=0;points=[];" parent="z7TpYC2vjfF_VWAq-0lx-5" vertex="1" connectable="0">
          <mxGeometry x="-0.6418" y="3" relative="1" as="geometry">
            <mxPoint x="-1" y="27" as="offset" />
          </mxGeometry>
        </mxCell>
        <mxCell id="z7TpYC2vjfF_VWAq-0lx-7" value="" style="endArrow=classic;html=1;rounded=0;dashed=1;entryX=0;entryY=1;entryDx=0;entryDy=0;exitX=1;exitY=0;exitDx=0;exitDy=0;" parent="1" source="eBJLb_c3kR89JoHOm1fs-45" target="eBJLb_c3kR89JoHOm1fs-48" edge="1">
          <mxGeometry width="50" height="50" relative="1" as="geometry">
            <mxPoint x="643" y="665" as="sourcePoint" />
            <mxPoint x="710" y="655" as="targetPoint" />
          </mxGeometry>
        </mxCell>
        <mxCell id="z7TpYC2vjfF_VWAq-0lx-8" value="«‎include»" style="edgeLabel;html=1;align=center;verticalAlign=middle;resizable=0;points=[];" parent="z7TpYC2vjfF_VWAq-0lx-7" vertex="1" connectable="0">
          <mxGeometry x="-0.6418" y="3" relative="1" as="geometry">
            <mxPoint x="29" y="-12" as="offset" />
          </mxGeometry>
        </mxCell>
        <mxCell id="z7TpYC2vjfF_VWAq-0lx-15" value="Настройки" style="ellipse;whiteSpace=wrap;html=1;" parent="1" vertex="1">
          <mxGeometry x="420" y="1130" width="120" height="70" as="geometry" />
        </mxCell>
        <mxCell id="z7TpYC2vjfF_VWAq-0lx-19" value="" style="endArrow=none;html=1;rounded=0;entryX=0;entryY=0.5;entryDx=0;entryDy=0;exitX=0.5;exitY=0.5;exitDx=0;exitDy=0;exitPerimeter=0;" parent="1" source="eBJLb_c3kR89JoHOm1fs-29" target="z7TpYC2vjfF_VWAq-0lx-15" edge="1">
          <mxGeometry width="50" height="50" relative="1" as="geometry">
            <mxPoint x="200" y="1060" as="sourcePoint" />
            <mxPoint x="390" y="1375" as="targetPoint" />
          </mxGeometry>
        </mxCell>
        <mxCell id="qViyJO7LNwzjbD9tu4lJ-1" value="" style="endArrow=none;html=1;rounded=0;entryX=0.5;entryY=1;entryDx=0;entryDy=0;entryPerimeter=0;" edge="1" parent="1" target="eBJLb_c3kR89JoHOm1fs-38">
          <mxGeometry width="50" height="50" relative="1" as="geometry">
            <mxPoint x="275" y="960" as="sourcePoint" />
            <mxPoint x="438" y="860" as="targetPoint" />
          </mxGeometry>
        </mxCell>
        <mxCell id="qViyJO7LNwzjbD9tu4lJ-2" value="Доступно после регистрации" style="shape=note;whiteSpace=wrap;html=1;backgroundOutline=1;darkOpacity=0.05;" vertex="1" parent="1">
          <mxGeometry x="320" y="940" width="70" height="80" as="geometry" />
        </mxCell>
        <mxCell id="qViyJO7LNwzjbD9tu4lJ-3" value="" style="endArrow=none;html=1;rounded=0;entryX=0.5;entryY=1;entryDx=0;entryDy=0;entryPerimeter=0;" edge="1" parent="1" target="qViyJO7LNwzjbD9tu4lJ-2">
          <mxGeometry width="50" height="50" relative="1" as="geometry">
            <mxPoint x="355" y="1055" as="sourcePoint" />
            <mxPoint x="518" y="955" as="targetPoint" />
          </mxGeometry>
        </mxCell>
        <mxCell id="qViyJO7LNwzjbD9tu4lJ-5" value="История объявлений" style="ellipse;whiteSpace=wrap;html=1;" vertex="1" parent="1">
          <mxGeometry x="1371" y="320" width="120" height="70" as="geometry" />
        </mxCell>
        <mxCell id="qViyJO7LNwzjbD9tu4lJ-6" value="" style="endArrow=classic;html=1;rounded=0;dashed=1;entryX=0.5;entryY=0;entryDx=0;entryDy=0;exitX=1;exitY=1;exitDx=0;exitDy=0;" edge="1" parent="1" source="qViyJO7LNwzjbD9tu4lJ-5" target="eBJLb_c3kR89JoHOm1fs-65">
          <mxGeometry width="50" height="50" relative="1" as="geometry">
            <mxPoint x="1382" y="375" as="sourcePoint" />
            <mxPoint x="1558" y="365" as="targetPoint" />
          </mxGeometry>
        </mxCell>
        <mxCell id="qViyJO7LNwzjbD9tu4lJ-7" value="«‎include»" style="edgeLabel;html=1;align=center;verticalAlign=middle;resizable=0;points=[];" vertex="1" connectable="0" parent="qViyJO7LNwzjbD9tu4lJ-6">
          <mxGeometry x="-0.6418" y="3" relative="1" as="geometry">
            <mxPoint x="40" y="10" as="offset" />
          </mxGeometry>
        </mxCell>
        <mxCell id="qViyJO7LNwzjbD9tu4lJ-8" value="Администратор" style="shape=umlActor;verticalLabelPosition=bottom;verticalAlign=top;html=1;outlineConnect=0;" vertex="1" parent="1">
          <mxGeometry x="1766" y="1025" width="50" height="90" as="geometry" />
        </mxCell>
        <mxCell id="qViyJO7LNwzjbD9tu4lJ-10" value="Мониторинг систем" style="ellipse;whiteSpace=wrap;html=1;" vertex="1" parent="1">
          <mxGeometry x="1437" y="895" width="120" height="70" as="geometry" />
        </mxCell>
        <mxCell id="qViyJO7LNwzjbD9tu4lJ-13" value="Управление объявлениями" style="ellipse;whiteSpace=wrap;html=1;" vertex="1" parent="1">
          <mxGeometry x="1317" y="1080" width="120" height="70" as="geometry" />
        </mxCell>
        <mxCell id="qViyJO7LNwzjbD9tu4lJ-14" value="" style="endArrow=none;html=1;rounded=0;entryX=0;entryY=0.3333333333333333;entryDx=0;entryDy=0;exitX=1;exitY=1;exitDx=0;exitDy=0;entryPerimeter=0;" edge="1" parent="1" source="qViyJO7LNwzjbD9tu4lJ-10">
          <mxGeometry width="50" height="50" relative="1" as="geometry">
            <mxPoint x="1656" y="990" as="sourcePoint" />
            <mxPoint x="1766" y="1055" as="targetPoint" />
          </mxGeometry>
        </mxCell>
        <mxCell id="qViyJO7LNwzjbD9tu4lJ-15" value="" style="endArrow=none;html=1;rounded=0;entryX=0;entryY=0.3333333333333333;entryDx=0;entryDy=0;exitX=1;exitY=0.5;exitDx=0;exitDy=0;entryPerimeter=0;" edge="1" parent="1" source="qViyJO7LNwzjbD9tu4lJ-13" target="qViyJO7LNwzjbD9tu4lJ-8">
          <mxGeometry width="50" height="50" relative="1" as="geometry">
            <mxPoint x="1496" y="1155" as="sourcePoint" />
            <mxPoint x="1606" y="1220" as="targetPoint" />
          </mxGeometry>
        </mxCell>
        <mxCell id="qViyJO7LNwzjbD9tu4lJ-16" value="Доступно после регистрации" style="shape=note;whiteSpace=wrap;html=1;backgroundOutline=1;darkOpacity=0.05;" vertex="1" parent="1">
          <mxGeometry x="1650" y="880" width="69" height="80" as="geometry" />
        </mxCell>
        <mxCell id="qViyJO7LNwzjbD9tu4lJ-17" value="Доступно после регистрации" style="shape=note;whiteSpace=wrap;html=1;backgroundOutline=1;darkOpacity=0.05;" vertex="1" parent="1">
          <mxGeometry x="1450" y="980" width="68" height="80" as="geometry" />
        </mxCell>
        <mxCell id="qViyJO7LNwzjbD9tu4lJ-18" value="" style="endArrow=none;html=1;rounded=0;exitX=0.5;exitY=1;exitDx=0;exitDy=0;exitPerimeter=0;" edge="1" parent="1" source="qViyJO7LNwzjbD9tu4lJ-17">
          <mxGeometry width="50" height="50" relative="1" as="geometry">
            <mxPoint x="1519" y="1140" as="sourcePoint" />
            <mxPoint x="1484" y="1105" as="targetPoint" />
            <Array as="points" />
          </mxGeometry>
        </mxCell>
        <mxCell id="qViyJO7LNwzjbD9tu4lJ-19" value="" style="endArrow=none;html=1;rounded=0;entryX=1;entryY=0.5;entryDx=0;entryDy=0;exitX=0.5;exitY=0.5;exitDx=0;exitDy=0;exitPerimeter=0;" edge="1" parent="1" source="qViyJO7LNwzjbD9tu4lJ-8" target="qViyJO7LNwzjbD9tu4lJ-20">
          <mxGeometry width="50" height="50" relative="1" as="geometry">
            <mxPoint x="1025" y="1240" as="sourcePoint" />
            <mxPoint x="1225" y="1430" as="targetPoint" />
          </mxGeometry>
        </mxCell>
        <mxCell id="qViyJO7LNwzjbD9tu4lJ-20" value="Настройки" style="ellipse;whiteSpace=wrap;html=1;" vertex="1" parent="1">
          <mxGeometry x="1360" y="1190" width="120" height="70" as="geometry" />
        </mxCell>
        <mxCell id="qViyJO7LNwzjbD9tu4lJ-21" value="" style="endArrow=none;html=1;rounded=0;exitX=0.5;exitY=1;exitDx=0;exitDy=0;exitPerimeter=0;" edge="1" parent="1" source="qViyJO7LNwzjbD9tu4lJ-16">
          <mxGeometry width="50" height="50" relative="1" as="geometry">
            <mxPoint x="1685.38" y="960" as="sourcePoint" />
            <mxPoint x="1685" y="1020" as="targetPoint" />
            <Array as="points" />
          </mxGeometry>
        </mxCell>
      </root>
    </mxGraphModel>
  </diagram>
</mxfile>
